<mxfile host="app.diagrams.net" modified="2023-12-30T02:37:10.471Z" agent="Mozilla/5.0 (Windows NT 10.0; Win64; x64) AppleWebKit/537.36 (KHTML, like Gecko) Chrome/120.0.0.0 Safari/537.36 Edg/120.0.0.0" etag="7nQ9QIWoaPednmXuAsaP" version="21.6.2" type="device">
  <diagram name="Page-1" id="RMrik0RwQ6CYG9NEFstJ">
    <mxGraphModel dx="1189" dy="639" grid="1" gridSize="10" guides="1" tooltips="1" connect="1" arrows="1" fold="1" page="1" pageScale="1" pageWidth="1654" pageHeight="1169" math="0" shadow="0">
      <root>
        <mxCell id="0" />
        <mxCell id="1" parent="0" />
        <mxCell id="TqBhW23VldVtFw53Jj99-30" value="" style="whiteSpace=wrap;html=1;aspect=fixed;" vertex="1" parent="1">
          <mxGeometry x="370" y="30" width="510" height="510" as="geometry" />
        </mxCell>
        <mxCell id="TqBhW23VldVtFw53Jj99-10" style="rounded=0;orthogonalLoop=1;jettySize=auto;html=1;entryX=0;entryY=0.5;entryDx=0;entryDy=0;" edge="1" parent="1" source="TqBhW23VldVtFw53Jj99-1" target="TqBhW23VldVtFw53Jj99-9">
          <mxGeometry relative="1" as="geometry" />
        </mxCell>
        <mxCell id="TqBhW23VldVtFw53Jj99-12" style="rounded=0;orthogonalLoop=1;jettySize=auto;html=1;entryX=0;entryY=0.5;entryDx=0;entryDy=0;" edge="1" parent="1" source="TqBhW23VldVtFw53Jj99-1" target="TqBhW23VldVtFw53Jj99-11">
          <mxGeometry relative="1" as="geometry" />
        </mxCell>
        <mxCell id="TqBhW23VldVtFw53Jj99-18" style="rounded=0;orthogonalLoop=1;jettySize=auto;html=1;entryX=0;entryY=0.5;entryDx=0;entryDy=0;" edge="1" parent="1" source="TqBhW23VldVtFw53Jj99-1" target="TqBhW23VldVtFw53Jj99-17">
          <mxGeometry relative="1" as="geometry" />
        </mxCell>
        <mxCell id="TqBhW23VldVtFw53Jj99-29" style="rounded=0;orthogonalLoop=1;jettySize=auto;html=1;entryX=0;entryY=0.5;entryDx=0;entryDy=0;" edge="1" parent="1" source="TqBhW23VldVtFw53Jj99-1" target="TqBhW23VldVtFw53Jj99-28">
          <mxGeometry relative="1" as="geometry" />
        </mxCell>
        <mxCell id="TqBhW23VldVtFw53Jj99-1" value="User&lt;br&gt;Vendor" style="shape=umlActor;verticalLabelPosition=bottom;verticalAlign=top;html=1;outlineConnect=0;" vertex="1" parent="1">
          <mxGeometry x="290" y="290" width="30" height="60" as="geometry" />
        </mxCell>
        <mxCell id="TqBhW23VldVtFw53Jj99-3" value="&lt;b&gt;&lt;font style=&quot;font-size: 18px;&quot; face=&quot;Times New Roman&quot;&gt;Supply Management Apps&lt;/font&gt;&lt;/b&gt;" style="text;html=1;strokeColor=none;fillColor=none;align=center;verticalAlign=middle;whiteSpace=wrap;rounded=0;" vertex="1" parent="1">
          <mxGeometry x="525" y="70" width="200" height="30" as="geometry" />
        </mxCell>
        <mxCell id="TqBhW23VldVtFw53Jj99-4" value="Manager&lt;br&gt;Logistic" style="shape=umlActor;verticalLabelPosition=bottom;verticalAlign=top;html=1;outlineConnect=0;" vertex="1" parent="1">
          <mxGeometry x="920" y="250" width="30" height="60" as="geometry" />
        </mxCell>
        <mxCell id="TqBhW23VldVtFw53Jj99-7" style="rounded=0;orthogonalLoop=1;jettySize=auto;html=1;entryX=1;entryY=0;entryDx=0;entryDy=0;" edge="1" parent="1" source="TqBhW23VldVtFw53Jj99-4" target="TqBhW23VldVtFw53Jj99-6">
          <mxGeometry relative="1" as="geometry">
            <mxPoint x="1070" y="260" as="targetPoint" />
            <mxPoint x="980" y="359.6576362970261" as="sourcePoint" />
          </mxGeometry>
        </mxCell>
        <mxCell id="TqBhW23VldVtFw53Jj99-37" style="rounded=0;orthogonalLoop=1;jettySize=auto;html=1;entryX=1;entryY=0.5;entryDx=0;entryDy=0;" edge="1" parent="1" source="TqBhW23VldVtFw53Jj99-6" target="TqBhW23VldVtFw53Jj99-11">
          <mxGeometry relative="1" as="geometry" />
        </mxCell>
        <mxCell id="TqBhW23VldVtFw53Jj99-38" style="rounded=0;orthogonalLoop=1;jettySize=auto;html=1;entryX=1;entryY=0.5;entryDx=0;entryDy=0;" edge="1" parent="1" source="TqBhW23VldVtFw53Jj99-6" target="TqBhW23VldVtFw53Jj99-9">
          <mxGeometry relative="1" as="geometry" />
        </mxCell>
        <mxCell id="TqBhW23VldVtFw53Jj99-42" style="rounded=0;orthogonalLoop=1;jettySize=auto;html=1;entryX=1;entryY=0.5;entryDx=0;entryDy=0;exitX=0.5;exitY=0;exitDx=0;exitDy=0;" edge="1" parent="1" source="TqBhW23VldVtFw53Jj99-6" target="TqBhW23VldVtFw53Jj99-17">
          <mxGeometry relative="1" as="geometry" />
        </mxCell>
        <mxCell id="TqBhW23VldVtFw53Jj99-6" value="Approval or Reject Vendor Registry" style="ellipse;whiteSpace=wrap;html=1;" vertex="1" parent="1">
          <mxGeometry x="710" y="310" width="120" height="70" as="geometry" />
        </mxCell>
        <mxCell id="TqBhW23VldVtFw53Jj99-9" value="Submit Tender" style="ellipse;whiteSpace=wrap;html=1;" vertex="1" parent="1">
          <mxGeometry x="510" y="255" width="100" height="60" as="geometry" />
        </mxCell>
        <mxCell id="TqBhW23VldVtFw53Jj99-11" value="Registry as a Vendor" style="ellipse;whiteSpace=wrap;html=1;" vertex="1" parent="1">
          <mxGeometry x="510" y="340" width="100" height="60" as="geometry" />
        </mxCell>
        <mxCell id="TqBhW23VldVtFw53Jj99-17" value="Complete Company Profile" style="ellipse;whiteSpace=wrap;html=1;" vertex="1" parent="1">
          <mxGeometry x="507.5" y="165.77" width="105" height="64.23" as="geometry" />
        </mxCell>
        <mxCell id="TqBhW23VldVtFw53Jj99-28" value="Login &amp;amp; Logout" style="ellipse;whiteSpace=wrap;html=1;" vertex="1" parent="1">
          <mxGeometry x="515" y="430" width="90" height="50" as="geometry" />
        </mxCell>
        <mxCell id="TqBhW23VldVtFw53Jj99-39" value="&amp;lt;&amp;lt;extends&amp;gt;&amp;gt;" style="text;html=1;strokeColor=none;fillColor=none;align=center;verticalAlign=middle;whiteSpace=wrap;rounded=0;rotation=24;" vertex="1" parent="1">
          <mxGeometry x="620" y="285" width="110" height="30" as="geometry" />
        </mxCell>
        <mxCell id="TqBhW23VldVtFw53Jj99-40" value="&amp;lt;&amp;lt;extends&amp;gt;&amp;gt;" style="text;html=1;strokeColor=none;fillColor=none;align=center;verticalAlign=middle;whiteSpace=wrap;rounded=0;rotation=350;" vertex="1" parent="1">
          <mxGeometry x="612.5" y="355" width="110" height="30" as="geometry" />
        </mxCell>
        <mxCell id="TqBhW23VldVtFw53Jj99-43" value="&amp;lt;&amp;lt;extends&amp;gt;&amp;gt;" style="text;html=1;strokeColor=none;fillColor=none;align=center;verticalAlign=middle;whiteSpace=wrap;rounded=0;rotation=35;" vertex="1" parent="1">
          <mxGeometry x="640" y="230" width="110" height="30" as="geometry" />
        </mxCell>
      </root>
    </mxGraphModel>
  </diagram>
</mxfile>
